<?xml version="1.0" encoding="UTF-8"?>
<!DOCTYPE svg PUBLIC "-//W3C//DTD SVG 1.1//EN" "http://www.w3.org/Graphics/SVG/1.1/DTD/svg11.dtd">
<svg version="1.2" viewBox="23349 9050 2302 2101" preserveAspectRatio="xMidYMid" fill-rule="evenodd" stroke-width="28.222" stroke-linejoin="round" xmlns="http://www.w3.org/2000/svg" xmlns:ooo="http://xml.openoffice.org/svg/export" xmlns:xlink="http://www.w3.org/1999/xlink" xmlns:presentation="http://sun.com/xmlns/staroffice/presentation" xmlns:smil="http://www.w3.org/2001/SMIL20/" xmlns:anim="urn:oasis:names:tc:opendocument:xmlns:animation:1.0" xmlns:svg="urn:oasis:names:tc:opendocument:xmlns:svg-compatible:1.0" xml:space="preserve">
 <defs class="EmbeddedBulletChars">
  <g id="bullet-char-template-57356" transform="scale(0.00048828125,-0.00048828125)">
   <path d="M 580,1141 L 1163,571 580,0 -4,571 580,1141 Z"/>
  </g>
  <g id="bullet-char-template-57354" transform="scale(0.00048828125,-0.00048828125)">
   <path d="M 8,1128 L 1137,1128 1137,0 8,0 8,1128 Z"/>
  </g>
  <g id="bullet-char-template-10146" transform="scale(0.00048828125,-0.00048828125)">
   <path d="M 174,0 L 602,739 174,1481 1456,739 174,0 Z M 1358,739 L 309,1346 659,739 1358,739 Z"/>
  </g>
  <g id="bullet-char-template-10132" transform="scale(0.00048828125,-0.00048828125)">
   <path d="M 2015,739 L 1276,0 717,0 1260,543 174,543 174,936 1260,936 717,1481 1274,1481 2015,739 Z"/>
  </g>
  <g id="bullet-char-template-10007" transform="scale(0.00048828125,-0.00048828125)">
   <path d="M 0,-2 C -7,14 -16,27 -25,37 L 356,567 C 262,823 215,952 215,954 215,979 228,992 255,992 264,992 276,990 289,987 310,991 331,999 354,1012 L 381,999 492,748 772,1049 836,1024 860,1049 C 881,1039 901,1025 922,1006 886,937 835,863 770,784 769,783 710,716 594,584 L 774,223 C 774,196 753,168 711,139 L 727,119 C 717,90 699,76 672,76 641,76 570,178 457,381 L 164,-76 C 142,-110 111,-127 72,-127 30,-127 9,-110 8,-76 1,-67 -2,-52 -2,-32 -2,-23 -1,-13 0,-2 Z"/>
  </g>
  <g id="bullet-char-template-10004" transform="scale(0.00048828125,-0.00048828125)">
   <path d="M 285,-33 C 182,-33 111,30 74,156 52,228 41,333 41,471 41,549 55,616 82,672 116,743 169,778 240,778 293,778 328,747 346,684 L 369,508 C 377,444 397,411 428,410 L 1163,1116 C 1174,1127 1196,1133 1229,1133 1271,1133 1292,1118 1292,1087 L 1292,965 C 1292,929 1282,901 1262,881 L 442,47 C 390,-6 338,-33 285,-33 Z"/>
  </g>
  <g id="bullet-char-template-9679" transform="scale(0.00048828125,-0.00048828125)">
   <path d="M 813,0 C 632,0 489,54 383,161 276,268 223,411 223,592 223,773 276,916 383,1023 489,1130 632,1184 813,1184 992,1184 1136,1130 1245,1023 1353,916 1407,772 1407,592 1407,412 1353,268 1245,161 1136,54 992,0 813,0 Z"/>
  </g>
  <g id="bullet-char-template-8226" transform="scale(0.00048828125,-0.00048828125)">
   <path d="M 346,457 C 273,457 209,483 155,535 101,586 74,649 74,723 74,796 101,859 155,911 209,963 273,989 346,989 419,989 480,963 531,910 582,859 608,796 608,723 608,648 583,586 532,535 482,483 420,457 346,457 Z"/>
  </g>
  <g id="bullet-char-template-8211" transform="scale(0.00048828125,-0.00048828125)">
   <path d="M -4,459 L 1135,459 1135,606 -4,606 -4,459 Z"/>
  </g>
  <g id="bullet-char-template-61548" transform="scale(0.00048828125,-0.00048828125)">
   <path d="M 173,740 C 173,903 231,1043 346,1159 462,1274 601,1332 765,1332 928,1332 1067,1274 1183,1159 1299,1043 1357,903 1357,740 1357,577 1299,437 1183,322 1067,206 928,148 765,148 601,148 462,206 346,322 231,437 173,577 173,740 Z"/>
  </g>
 </defs>
 <g ooo:name="page1" class="Page">
  <g class="Group">
   <g class="com.sun.star.drawing.LineShape">
    <g id="id3">
     <rect class="BoundingBox" stroke="none" fill="none" x="23350" y="10350" width="301" height="800"/>
     <path fill="none" stroke="rgb(0,0,205)" stroke-width="300" stroke-linejoin="round" d="M 23500,10500 L 23500,10999"/>
    </g>
   </g>
   <g class="com.sun.star.drawing.LineShape">
    <g id="id4">
     <rect class="BoundingBox" stroke="none" fill="none" x="23350" y="10849" width="2301" height="301"/>
     <path fill="none" stroke="rgb(0,0,205)" stroke-width="300" stroke-linejoin="round" d="M 23500,10999 L 25500,10999"/>
    </g>
   </g>
   <g class="com.sun.star.drawing.CustomShape">
    <g id="id5">
     <rect class="BoundingBox" stroke="none" fill="none" x="23349" y="10349" width="302" height="302"/>
     <path fill="rgb(0,0,205)" stroke="none" d="M 23500,10499 L 23500,10499 23500,10500 23499,10500 23499,10499 23500,10499 Z"/>
     <path fill="none" stroke="rgb(0,0,205)" stroke-width="300" stroke-linejoin="round" d="M 23500,10499 L 23500,10499 23500,10500 23499,10500 23499,10499 23500,10499 Z"/>
    </g>
   </g>
   <g class="com.sun.star.drawing.CustomShape">
    <g id="id6">
     <rect class="BoundingBox" stroke="none" fill="none" x="25348" y="10849" width="302" height="302"/>
     <path fill="rgb(0,0,205)" stroke="none" d="M 25499,10999 L 25499,10999 25499,11000 25498,11000 25498,10999 25499,10999 Z"/>
     <path fill="none" stroke="rgb(0,0,205)" stroke-width="300" stroke-linejoin="round" d="M 25499,10999 L 25499,10999 25499,11000 25498,11000 25498,10999 25499,10999 Z"/>
    </g>
   </g>
   <g class="com.sun.star.drawing.CustomShape">
    <g id="id7">
     <rect class="BoundingBox" stroke="none" fill="none" x="23349" y="10848" width="302" height="302"/>
     <path fill="rgb(0,0,205)" stroke="none" d="M 23500,10998 L 23500,10998 23500,10999 23499,10999 23499,10998 23500,10998 Z"/>
     <path fill="none" stroke="rgb(0,0,205)" stroke-width="300" stroke-linejoin="round" d="M 23500,10998 L 23500,10998 23500,10999 23499,10999 23499,10998 23500,10998 Z"/>
    </g>
   </g>
   <g class="com.sun.star.drawing.LineShape">
    <g id="id8">
     <rect class="BoundingBox" stroke="none" fill="none" x="25350" y="10350" width="301" height="800"/>
     <path fill="none" stroke="rgb(0,0,205)" stroke-width="300" stroke-linejoin="round" d="M 25500,10500 L 25500,10999"/>
    </g>
   </g>
   <g class="com.sun.star.drawing.CustomShape">
    <g id="id9">
     <rect class="BoundingBox" stroke="none" fill="none" x="25348" y="10349" width="302" height="302"/>
     <path fill="rgb(0,0,205)" stroke="none" d="M 25499,10499 L 25499,10499 25499,10500 25498,10500 25498,10499 25499,10499 Z"/>
     <path fill="none" stroke="rgb(0,0,205)" stroke-width="300" stroke-linejoin="round" d="M 25499,10499 L 25499,10499 25499,10500 25498,10500 25498,10499 25499,10499 Z"/>
    </g>
   </g>
  </g>
  <g class="Group">
   <g class="Group">
    <g class="com.sun.star.drawing.CustomShape">
     <g id="id10">
      <rect class="BoundingBox" stroke="none" fill="none" x="24349" y="9845" width="302" height="302"/>
      <path fill="rgb(0,0,205)" stroke="none" d="M 24500,9995 L 24500,9995 24500,9996 24499,9996 24499,9995 24500,9995 Z"/>
      <path fill="none" stroke="rgb(0,0,205)" stroke-width="300" stroke-linejoin="round" d="M 24500,9995 L 24500,9995 24500,9996 24499,9996 24499,9995 24500,9995 Z"/>
     </g>
    </g>
    <g class="com.sun.star.drawing.LineShape">
     <g id="id11">
      <rect class="BoundingBox" stroke="none" fill="none" x="24351" y="9051" width="301" height="1095"/>
      <path fill="none" stroke="rgb(0,0,205)" stroke-width="300" stroke-linejoin="round" d="M 24501,9201 L 24501,9995"/>
     </g>
    </g>
    <g class="com.sun.star.drawing.CustomShape">
     <g id="id12">
      <rect class="BoundingBox" stroke="none" fill="none" x="24349" y="9050" width="302" height="302"/>
      <path fill="rgb(0,0,205)" stroke="none" d="M 24500,9200 L 24500,9200 24500,9201 24499,9201 24499,9200 24500,9200 Z"/>
      <path fill="none" stroke="rgb(0,0,205)" stroke-width="300" stroke-linejoin="round" d="M 24500,9200 L 24500,9200 24500,9201 24499,9201 24499,9200 24500,9200 Z"/>
     </g>
    </g>
   </g>
   <g class="Group">
    <g class="com.sun.star.drawing.CustomShape">
     <g id="id13">
      <rect class="BoundingBox" stroke="none" fill="none" x="24350" y="10046" width="303" height="303"/>
      <path fill="rgb(0,0,205)" stroke="none" d="M 24501,10197 L 24502,10197 24501,10198 24500,10197 24501,10197 24501,10197 Z"/>
      <path fill="none" stroke="rgb(0,0,205)" stroke-width="300" stroke-linejoin="round" d="M 24501,10197 L 24502,10197 24501,10198 24500,10197 24501,10197 24501,10197 Z"/>
     </g>
    </g>
    <g class="com.sun.star.drawing.LineShape">
     <g id="id14">
      <rect class="BoundingBox" stroke="none" fill="none" x="24351" y="9485" width="864" height="864"/>
      <path fill="none" stroke="rgb(0,0,205)" stroke-width="300" stroke-linejoin="round" d="M 25063,9636 L 24502,10197"/>
     </g>
    </g>
    <g class="com.sun.star.drawing.CustomShape">
     <g id="id15">
      <rect class="BoundingBox" stroke="none" fill="none" x="24912" y="9484" width="303" height="303"/>
      <path fill="rgb(0,0,205)" stroke="none" d="M 25063,9635 L 25064,9635 25063,9636 25062,9635 25063,9635 25063,9635 Z"/>
      <path fill="none" stroke="rgb(0,0,205)" stroke-width="300" stroke-linejoin="round" d="M 25063,9635 L 25064,9635 25063,9636 25062,9635 25063,9635 25063,9635 Z"/>
     </g>
    </g>
   </g>
   <g class="Group">
    <g class="com.sun.star.drawing.CustomShape">
     <g id="id16">
      <rect class="BoundingBox" stroke="none" fill="none" x="24348" y="10048" width="303" height="303"/>
      <path fill="rgb(0,0,205)" stroke="none" d="M 24499,10199 L 24499,10198 24500,10199 24499,10200 24499,10199 24499,10199 Z"/>
      <path fill="none" stroke="rgb(0,0,205)" stroke-width="300" stroke-linejoin="round" d="M 24499,10199 L 24499,10198 24500,10199 24499,10200 24499,10199 24499,10199 Z"/>
     </g>
    </g>
    <g class="com.sun.star.drawing.LineShape">
     <g id="id17">
      <rect class="BoundingBox" stroke="none" fill="none" x="23787" y="9486" width="864" height="864"/>
      <path fill="none" stroke="rgb(0,0,205)" stroke-width="300" stroke-linejoin="round" d="M 23938,9637 L 24499,10198"/>
     </g>
    </g>
    <g class="com.sun.star.drawing.CustomShape">
     <g id="id18">
      <rect class="BoundingBox" stroke="none" fill="none" x="23786" y="9486" width="303" height="303"/>
      <path fill="rgb(0,0,205)" stroke="none" d="M 23937,9637 L 23937,9636 23938,9637 23937,9638 23937,9637 23937,9637 Z"/>
      <path fill="none" stroke="rgb(0,0,205)" stroke-width="300" stroke-linejoin="round" d="M 23937,9637 L 23937,9636 23938,9637 23937,9638 23937,9637 23937,9637 Z"/>
     </g>
    </g>
   </g>
  </g>
 </g>
</svg>