<?xml version="1.0" encoding="UTF-8"?>
<!DOCTYPE svg PUBLIC "-//W3C//DTD SVG 1.1//EN" "http://www.w3.org/Graphics/SVG/1.1/DTD/svg11.dtd">
<svg version="1.2" viewBox="8900 1900 4702 4702" preserveAspectRatio="xMidYMid" fill-rule="evenodd" stroke-width="28.222" stroke-linejoin="round" xmlns="http://www.w3.org/2000/svg" xmlns:ooo="http://xml.openoffice.org/svg/export" xmlns:xlink="http://www.w3.org/1999/xlink" xmlns:presentation="http://sun.com/xmlns/staroffice/presentation" xmlns:smil="http://www.w3.org/2001/SMIL20/" xmlns:anim="urn:oasis:names:tc:opendocument:xmlns:animation:1.0" xmlns:svg="urn:oasis:names:tc:opendocument:xmlns:svg-compatible:1.0" xml:space="preserve">
 <defs class="EmbeddedBulletChars">
  <g id="bullet-char-template-57356" transform="scale(0.00048828125,-0.00048828125)">
   <path d="M 580,1141 L 1163,571 580,0 -4,571 580,1141 Z"/>
  </g>
  <g id="bullet-char-template-57354" transform="scale(0.00048828125,-0.00048828125)">
   <path d="M 8,1128 L 1137,1128 1137,0 8,0 8,1128 Z"/>
  </g>
  <g id="bullet-char-template-10146" transform="scale(0.00048828125,-0.00048828125)">
   <path d="M 174,0 L 602,739 174,1481 1456,739 174,0 Z M 1358,739 L 309,1346 659,739 1358,739 Z"/>
  </g>
  <g id="bullet-char-template-10132" transform="scale(0.00048828125,-0.00048828125)">
   <path d="M 2015,739 L 1276,0 717,0 1260,543 174,543 174,936 1260,936 717,1481 1274,1481 2015,739 Z"/>
  </g>
  <g id="bullet-char-template-10007" transform="scale(0.00048828125,-0.00048828125)">
   <path d="M 0,-2 C -7,14 -16,27 -25,37 L 356,567 C 262,823 215,952 215,954 215,979 228,992 255,992 264,992 276,990 289,987 310,991 331,999 354,1012 L 381,999 492,748 772,1049 836,1024 860,1049 C 881,1039 901,1025 922,1006 886,937 835,863 770,784 769,783 710,716 594,584 L 774,223 C 774,196 753,168 711,139 L 727,119 C 717,90 699,76 672,76 641,76 570,178 457,381 L 164,-76 C 142,-110 111,-127 72,-127 30,-127 9,-110 8,-76 1,-67 -2,-52 -2,-32 -2,-23 -1,-13 0,-2 Z"/>
  </g>
  <g id="bullet-char-template-10004" transform="scale(0.00048828125,-0.00048828125)">
   <path d="M 285,-33 C 182,-33 111,30 74,156 52,228 41,333 41,471 41,549 55,616 82,672 116,743 169,778 240,778 293,778 328,747 346,684 L 369,508 C 377,444 397,411 428,410 L 1163,1116 C 1174,1127 1196,1133 1229,1133 1271,1133 1292,1118 1292,1087 L 1292,965 C 1292,929 1282,901 1262,881 L 442,47 C 390,-6 338,-33 285,-33 Z"/>
  </g>
  <g id="bullet-char-template-9679" transform="scale(0.00048828125,-0.00048828125)">
   <path d="M 813,0 C 632,0 489,54 383,161 276,268 223,411 223,592 223,773 276,916 383,1023 489,1130 632,1184 813,1184 992,1184 1136,1130 1245,1023 1353,916 1407,772 1407,592 1407,412 1353,268 1245,161 1136,54 992,0 813,0 Z"/>
  </g>
  <g id="bullet-char-template-8226" transform="scale(0.00048828125,-0.00048828125)">
   <path d="M 346,457 C 273,457 209,483 155,535 101,586 74,649 74,723 74,796 101,859 155,911 209,963 273,989 346,989 419,989 480,963 531,910 582,859 608,796 608,723 608,648 583,586 532,535 482,483 420,457 346,457 Z"/>
  </g>
  <g id="bullet-char-template-8211" transform="scale(0.00048828125,-0.00048828125)">
   <path d="M -4,459 L 1135,459 1135,606 -4,606 -4,459 Z"/>
  </g>
  <g id="bullet-char-template-61548" transform="scale(0.00048828125,-0.00048828125)">
   <path d="M 173,740 C 173,903 231,1043 346,1159 462,1274 601,1332 765,1332 928,1332 1067,1274 1183,1159 1299,1043 1357,903 1357,740 1357,577 1299,437 1183,322 1067,206 928,148 765,148 601,148 462,206 346,322 231,437 173,577 173,740 Z"/>
  </g>
 </defs>
 <g ooo:name="page1" class="Page">
  <g class="Group">
   <g class="com.sun.star.drawing.CustomShape">
    <g id="id3">
     <rect class="BoundingBox" stroke="none" fill="none" x="8900" y="1900" width="4702" height="4702"/>
     <path fill="rgb(89,131,176)" stroke="none" d="M 13501,4251 C 13501,4646 13397,5034 13199,5376 13002,5718 12718,6002 12376,6199 12034,6397 11646,6501 11251,6501 10855,6501 10467,6397 10125,6199 9783,6002 9499,5718 9302,5376 9104,5034 9000,4646 9000,4251 9000,3855 9104,3467 9302,3125 9499,2783 9783,2499 10125,2302 10467,2104 10855,2000 11250,2000 11646,2000 12034,2104 12376,2302 12718,2499 13002,2783 13199,3125 13397,3467 13501,3855 13501,4250 L 13501,4251 Z"/>
     <path fill="none" stroke="rgb(255,128,0)" stroke-width="200" stroke-linejoin="round" d="M 13501,4251 C 13501,4646 13397,5034 13199,5376 13002,5718 12718,6002 12376,6199 12034,6397 11646,6501 11251,6501 10855,6501 10467,6397 10125,6199 9783,6002 9499,5718 9302,5376 9104,5034 9000,4646 9000,4251 9000,3855 9104,3467 9302,3125 9499,2783 9783,2499 10125,2302 10467,2104 10855,2000 11250,2000 11646,2000 12034,2104 12376,2302 12718,2499 13002,2783 13199,3125 13397,3467 13501,3855 13501,4250 L 13501,4251 Z"/>
    </g>
   </g>
   <g class="Group">
    <g class="com.sun.star.drawing.CustomShape">
     <g id="id4">
      <rect class="BoundingBox" stroke="none" fill="none" x="10200" y="2449" width="2101" height="2101"/>
      <path fill="rgb(89,131,176)" stroke="none" d="M 12250,3499 C 12250,3675 12204,3847 12116,3999 12028,4151 11902,4277 11750,4365 11598,4453 11426,4499 11250,4499 11074,4499 10902,4453 10750,4365 10598,4277 10472,4151 10384,3999 10296,3847 10250,3675 10250,3499 10250,3323 10296,3151 10384,2999 10472,2847 10598,2721 10750,2633 10902,2545 11074,2499 11250,2499 11426,2499 11598,2545 11750,2633 11902,2721 12028,2847 12116,2999 12204,3151 12250,3323 12250,3499 L 12250,3499 Z"/>
      <path fill="none" stroke="rgb(255,128,0)" stroke-width="100" stroke-linejoin="round" d="M 12250,3499 C 12250,3675 12204,3847 12116,3999 12028,4151 11902,4277 11750,4365 11598,4453 11426,4499 11250,4499 11074,4499 10902,4453 10750,4365 10598,4277 10472,4151 10384,3999 10296,3847 10250,3675 10250,3499 10250,3323 10296,3151 10384,2999 10472,2847 10598,2721 10750,2633 10902,2545 11074,2499 11250,2499 11426,2499 11598,2545 11750,2633 11902,2721 12028,2847 12116,2999 12204,3151 12250,3323 12250,3499 L 12250,3499 Z"/>
     </g>
    </g>
    <g class="com.sun.star.drawing.CustomShape">
     <g id="id5">
      <rect class="BoundingBox" stroke="none" fill="none" x="10450" y="2699" width="1601" height="1601"/>
      <path fill="rgb(89,131,176)" stroke="none" d="M 12000,3499 C 12000,3631 11965,3760 11900,3874 11834,3988 11739,4083 11625,4149 11511,4214 11382,4249 11250,4249 11118,4249 10989,4214 10875,4149 10761,4083 10666,3988 10600,3874 10535,3760 10500,3631 10500,3499 10500,3367 10535,3238 10600,3124 10666,3010 10761,2915 10875,2849 10989,2784 11118,2749 11250,2749 11382,2749 11511,2784 11625,2849 11739,2915 11834,3010 11900,3124 11965,3238 12000,3367 12000,3499 L 12000,3499 Z"/>
      <path fill="none" stroke="rgb(255,128,0)" stroke-width="100" stroke-linejoin="round" d="M 12000,3499 C 12000,3631 11965,3760 11900,3874 11834,3988 11739,4083 11625,4149 11511,4214 11382,4249 11250,4249 11118,4249 10989,4214 10875,4149 10761,4083 10666,3988 10600,3874 10535,3760 10500,3631 10500,3499 10500,3367 10535,3238 10600,3124 10666,3010 10761,2915 10875,2849 10989,2784 11118,2749 11250,2749 11382,2749 11511,2784 11625,2849 11739,2915 11834,3010 11900,3124 11965,3238 12000,3367 12000,3499 L 12000,3499 Z"/>
     </g>
    </g>
    <g class="com.sun.star.drawing.CustomShape">
     <g id="id6">
      <rect class="BoundingBox" stroke="none" fill="none" x="10700" y="2949" width="1102" height="1102"/>
      <path fill="rgb(89,131,176)" stroke="none" d="M 11751,3500 C 11751,3587 11728,3674 11684,3750 11640,3826 11577,3889 11501,3933 11425,3977 11338,4000 11251,4000 11163,4000 11076,3977 11000,3933 10924,3889 10861,3826 10817,3750 10773,3674 10750,3587 10750,3500 10750,3412 10773,3325 10817,3249 10861,3173 10924,3110 11000,3066 11076,3022 11163,2999 11251,2999 11338,2999 11425,3022 11501,3066 11577,3110 11640,3173 11684,3249 11728,3325 11751,3412 11751,3499 L 11751,3500 Z"/>
      <path fill="none" stroke="rgb(255,128,0)" stroke-width="100" stroke-linejoin="round" d="M 11751,3500 C 11751,3587 11728,3674 11684,3750 11640,3826 11577,3889 11501,3933 11425,3977 11338,4000 11251,4000 11163,4000 11076,3977 11000,3933 10924,3889 10861,3826 10817,3750 10773,3674 10750,3587 10750,3500 10750,3412 10773,3325 10817,3249 10861,3173 10924,3110 11000,3066 11076,3022 11163,2999 11251,2999 11338,2999 11425,3022 11501,3066 11577,3110 11640,3173 11684,3249 11728,3325 11751,3412 11751,3499 L 11751,3500 Z"/>
     </g>
    </g>
    <g class="com.sun.star.drawing.CustomShape">
     <g id="id7">
      <rect class="BoundingBox" stroke="none" fill="none" x="10200" y="3449" width="2102" height="1101"/>
      <path fill="rgb(89,131,176)" stroke="none" d="M 11250,3499 L 12251,4499 10250,4499 11250,3499 Z"/>
      <path fill="none" stroke="rgb(89,131,176)" stroke-width="100" stroke-linejoin="round" d="M 11250,3499 L 12251,4499 10250,4499 11250,3499 Z"/>
     </g>
    </g>
    <g class="com.sun.star.drawing.CustomShape">
     <g id="id8">
      <rect class="BoundingBox" stroke="none" fill="none" x="10200" y="2449" width="2102" height="1102"/>
      <path fill="rgb(89,131,176)" stroke="none" d="M 11250,3499 L 12251,2499 10250,2499 11250,3499 Z"/>
      <path fill="none" stroke="rgb(89,131,176)" stroke-width="100" stroke-linejoin="round" d="M 11250,3499 L 12251,2499 10250,2499 11250,3499 Z"/>
     </g>
    </g>
    <g class="com.sun.star.drawing.CustomShape">
     <g id="id9">
      <rect class="BoundingBox" stroke="none" fill="none" x="10999" y="3248" width="504" height="504"/>
      <path fill="rgb(255,128,0)" stroke="none" d="M 11501,3500 C 11501,3543 11489,3587 11467,3625 11445,3663 11414,3694 11376,3716 11338,3738 11294,3750 11251,3750 11207,3750 11163,3738 11125,3716 11087,3694 11056,3663 11034,3625 11012,3587 11000,3543 11000,3500 11000,3456 11012,3412 11034,3374 11056,3336 11087,3305 11125,3283 11163,3261 11207,3249 11251,3249 11294,3249 11338,3261 11376,3283 11414,3305 11445,3336 11467,3374 11489,3412 11501,3456 11501,3499 L 11501,3500 Z"/>
      <path fill="none" stroke="rgb(255,128,0)" d="M 11501,3500 C 11501,3543 11489,3587 11467,3625 11445,3663 11414,3694 11376,3716 11338,3738 11294,3750 11251,3750 11207,3750 11163,3738 11125,3716 11087,3694 11056,3663 11034,3625 11012,3587 11000,3543 11000,3500 11000,3456 11012,3412 11034,3374 11056,3336 11087,3305 11125,3283 11163,3261 11207,3249 11251,3249 11294,3249 11338,3261 11376,3283 11414,3305 11445,3336 11467,3374 11489,3412 11501,3456 11501,3499 L 11501,3500 Z"/>
     </g>
    </g>
   </g>
   <g class="com.sun.star.drawing.CustomShape">
    <g id="id10">
     <rect class="BoundingBox" stroke="none" fill="none" x="9950" y="3850" width="2602" height="2202"/>
     <path fill="rgb(255,128,0)" stroke="none" d="M 11250,3900 L 12501,6001 10000,6001 11250,3900 Z"/>
     <path fill="none" stroke="rgb(255,128,0)" stroke-width="100" stroke-linejoin="round" d="M 11250,3900 L 12501,6001 10000,6001 11250,3900 Z"/>
    </g>
   </g>
   <g class="com.sun.star.drawing.CustomShape">
    <g id="id11">
     <rect class="BoundingBox" stroke="none" fill="none" x="9999" y="5999" width="2504" height="504"/>
     <path fill="rgb(255,128,0)" stroke="none" d="M 10000,6000 L 12501,6000 11875,6501 10625,6501 10000,6000 Z"/>
     <path fill="none" stroke="rgb(255,128,0)" d="M 10000,6000 L 12501,6000 11875,6501 10625,6501 10000,6000 Z"/>
    </g>
   </g>
  </g>
 </g>
</svg>